HIERARCHY
ROOT root
{
	OFFSET	0	13.1	24.9
	CHANNELS 6  Xposition Yposition Zposition Xrotation Yrotation Zrotation
	JOINT spine_1
	{
		OFFSET	0	9.99999	0
		CHANNELS 3  Xrotation Yrotation Zrotation
		JOINT spine_2
		{
			OFFSET	0	112	-10
			CHANNELS 3  Xrotation Yrotation Zrotation
			JOINT spine_3
			{
				OFFSET	0	206.5	19.3
				CHANNELS 3  Xrotation Yrotation Zrotation
				JOINT spine_4
				{
					OFFSET	0	110.4	14.6
					CHANNELS 3  Xrotation Yrotation Zrotation
					JOINT neck_1
					{
						OFFSET	0	71.8	-50.3
						CHANNELS 3  Xrotation Yrotation Zrotation
						JOINT neck_2
						{
							OFFSET	0	86.2	-25.8
							CHANNELS 3  Xrotation Yrotation Zrotation
							JOINT head_ee
							{
								OFFSET	0	179.8	-8.7
								CHANNELS 3  Xrotation Yrotation Zrotation
								End Site
								{
									OFFSET	1	0	0
								}
							}
						}
					}
					JOINT left_clavicle
					{
						OFFSET	-43.2	22.4	-70.8
						CHANNELS 3  Xrotation Yrotation Zrotation
						JOINT left_shoulder
						{
							OFFSET	-93.9	-5.79999	48.7
							CHANNELS 3  Xrotation Yrotation Zrotation
							JOINT left_elbow
							{
								OFFSET	-291.4	-30.8	15.2
								CHANNELS 3  Xrotation Yrotation Zrotation
								JOINT left_lowarm_twist
								{
									OFFSET	-110.7	-3.89999	13.6
									CHANNELS 3  Xrotation Yrotation Zrotation
									JOINT left_hand
									{
										OFFSET	-110.7	-3.89999	13.6
										CHANNELS 3  Xrotation Yrotation Zrotation
										JOINT left_ee
										{
											OFFSET	-80.8	-5.10001	12.1
											CHANNELS 3  Xrotation Yrotation Zrotation
											End Site
											{
												OFFSET	1	0	0
											}
										}
									}
								}
							}
						}
					}
					JOINT right_clavicle
					{
						OFFSET	43.2	22.4	-70.8
						CHANNELS 3  Xrotation Yrotation Zrotation
						JOINT right_shoulder
						{
							OFFSET	93.9	-5.79999	48.7
							CHANNELS 3  Xrotation Yrotation Zrotation
							JOINT right_elbow
							{
								OFFSET	291.4	-30.8	15.2
								CHANNELS 3  Xrotation Yrotation Zrotation
								JOINT right_lowarm_twist
								{
									OFFSET	110.7	-3.89999	13.6
									CHANNELS 3  Xrotation Yrotation Zrotation
									JOINT right_hand
									{
										OFFSET	110.7	-3.89999	13.6
										CHANNELS 3  Xrotation Yrotation Zrotation
										JOINT right_ee
										{
											OFFSET	80.8	-5.10001	12.1
											CHANNELS 3  Xrotation Yrotation Zrotation
											End Site
											{
												OFFSET	1	0	0
											}
										}
									}
								}
							}
						}
					}
				}
			}
		}
	}
	JOINT left_hip
	{
		OFFSET	-82.8	-127.5	0.300001
		CHANNELS 3  Xrotation Yrotation Zrotation
		JOINT left_knee
		{
			OFFSET	-28.2	-396.7	2.2
			CHANNELS 3  Xrotation Yrotation Zrotation
			JOINT left_ankle
			{
				OFFSET	-11.7	-411.3	35.4
				CHANNELS 3  Xrotation Yrotation Zrotation
				JOINT left_toes
				{
					OFFSET	0	-60	-88.6
					CHANNELS 3  Xrotation Yrotation Zrotation
					JOINT left_foot_ee
					{
						OFFSET	-22.5	-16.5	-42.2
						CHANNELS 3  Xrotation Yrotation Zrotation
						End Site
						{
							OFFSET	1	0	0
						}
					}
				}
			}
		}
	}
	JOINT right_hip
	{
		OFFSET	82.8	-127.5	0.300001
		CHANNELS 3  Xrotation Yrotation Zrotation
		JOINT right_knee
		{
			OFFSET	28.2	-396.7	2.2
			CHANNELS 3  Xrotation Yrotation Zrotation
			JOINT right_ankle
			{
				OFFSET	11.7	-411.3	35.4
				CHANNELS 3  Xrotation Yrotation Zrotation
				JOINT right_toes
				{
					OFFSET	0	-60	-88.6
					CHANNELS 3  Xrotation Yrotation Zrotation
					JOINT right_foot_ee
					{
						OFFSET	22.5	-16.5	-42.2
						CHANNELS 3  Xrotation Yrotation Zrotation
						End Site
						{
							OFFSET	1	0	0
						}
					}
				}
			}
		}
	}
}
MOTION
Frames: 11
Frame Time: 0.02
3172.45 676.111 -1504.86 -16.0383 62.9155 11.0156 1.84998 1.0652 4.0549 1.85876 0.805245 4.11433 1.91722 0.0636462 4.19177 1.89344 0.724288 4.12932 -3.43733 19.4686 -2.26915 -2.78354 37.3065 0.461342 -0.0 0.0 -0.0 -1.43564 24.1542 0.855202 -41.5508 -11.4004 68.5538 0.631242 -17.3645 0.0963946 -21.6043 -1.23925 2.45245 0.0252847 12.648 5.36811 -0.0 0.0 -0.0 13.2814 25.7993 -26.3523 24.3588 36.1843 -69.4337 2.08636 45.9388 -0.884372 28.5857 -0.107898 3.61237 1.44169 19.2478 -1.40072 0.0 0.0 0.0 34.5517 29.0488 -13.8124 2.80557 -0.125659 -0.412112 10.106 -29.9353 -1.81691 -39.7701 0.0 0.0 -0.0 0.0 -0.0 -17.2621 16.8619 13.4394 2.2025 0.0969445 0.324042 40.3826 6.6472 4.99119 -13.4682 0.0 0.0 0.0 0.0 0.0 
3143.6 678.294 -1501.26 -14.991 61.9717 10.1979 1.68777 1.06472 4.09822 1.69675 0.802015 4.15753 1.75602 0.040867 4.23385 1.73171 0.708421 4.17446 -2.35911 19.6835 -0.214189 -1.64221 35.925 2.29656 -0.0 0.0 -0.0 -1.99549 23.9129 0.0593876 -39.3485 -13.0737 70.1306 0.593434 -16.3819 0.0854201 -21.3232 -1.21734 2.42386 -0.173659 12.8436 4.18975 -0.0 0.0 -0.0 13.6591 26.5572 -27.1378 23.0541 37.1387 -68.9685 1.97248 44.3317 -0.803649 27.5295 -0.136079 3.4804 1.70683 17.1779 -4.10154 0.0 0.0 0.0 33.6653 30.4181 -14.0398 -1.55032 0.0607228 0.230163 16.1514 -28.9976 -2.78579 -39.6825 0.0 0.0 -0.0 0.0 -0.0 -17.9846 17.9993 14.1073 -2.53876 -0.0961737 -0.377715 39.2744 4.09256 4.8557 -20.8027 0.0 0.0 0.0 0.0 0.0 
3120.79 687.81 -1495.33 -13.2992 60.285 8.62018 1.59981 0.999227 4.15077 1.60909 0.733319 4.2058 1.66418 -0.0424499 4.26893 1.63931 0.63167 4.22224 -2.86119 19.3138 -0.00681129 -2.25442 35.1949 2.63453 -0.0 0.0 -0.0 -1.79807 23.7246 0.296706 -36.6297 -12.6381 70.2625 0.537857 -14.9194 0.070426 -20.3663 -1.14385 2.32577 -0.43509 12.9227 2.57533 -0.0 0.0 -0.0 14.1306 25.9882 -28.3107 20.962 37.1101 -68.9774 1.91384 43.4682 -0.762988 26.6882 -0.156784 3.37492 2.02231 16.2241 -6.65152 0.0 0.0 0.0 31.3579 31.5503 -13.6895 -3.30353 0.121851 0.492275 20.767 -26.1181 -3.37275 -38.896 0.0 0.0 -0.0 0.0 -0.0 -19.3568 21.6465 15.7159 -5.40053 -0.184381 -0.808007 30.6297 2.75351 4.00207 -21.6413 0.0 0.0 0.0 0.0 0.0 
3106.5 692.845 -1487.93 -11.8282 59.1248 7.00101 1.20169 1.08422 4.18605 1.21107 0.8159 4.24641 1.27403 0.0021165 4.32394 1.2486 0.684344 4.26954 -2.27652 19.9778 1.78706 -1.62127 34.8974 4.42468 -0.0 0.0 -0.0 -1.39872 23.3339 0.781672 -33.6352 -13.947 69.9325 0.512533 -14.2462 0.0640498 -21.2046 -1.20814 2.41177 -0.662479 12.2566 0.861788 -0.0 0.0 -0.0 14.1485 26.2988 -28.3137 19.5261 38.5668 -67.659 1.79098 41.5756 -0.67994 25.9457 -0.173768 3.2816 2.1409 14.1158 -8.41346 0.0 0.0 0.0 30.6727 33.2567 -13.6404 -4.50572 0.159113 0.673009 20.3019 -25.5504 -3.28498 -38.8959 0.0 0.0 -0.0 0.0 -0.0 -19.5083 24.2275 16.8117 -8.51399 -0.2558 -1.2804 26.2953 0.00974433 3.50202 -23.215 0.0 0.0 0.0 0.0 0.0 
3083.13 702.46 -1477.45 -9.67259 59.1659 5.0376 0.794987 1.14967 4.20526 0.804393 0.879996 4.26973 0.873748 0.0303463 4.35921 0.847956 0.717775 4.29993 -3.14777 18.8943 0.444963 -2.62727 34.1392 3.14544 -0.0 0.0 -0.0 -0.270605 23.0695 2.29821 -30.8997 -13.8591 67.6057 0.51377 -14.2792 0.0643545 -20.1549 -1.12784 2.30394 -0.542956 13.3451 2.07424 -0.0 0.0 -0.0 14.5067 26.6114 -29.1151 17.3655 37.9379 -66.3473 1.59762 38.3557 -0.555688 24.813 -0.197342 3.13883 2.71741 12.9508 -12.8869 0.0 0.0 0.0 26.5614 34.237 -11.4537 -2.88456 0.107974 0.429473 20.5705 -26.1743 -3.34677 -40.1264 0.0 0.0 -0.0 0.0 -0.0 -18.472 27.3167 16.1806 -15.8571 -0.321965 -2.4044 18.0978 -8.39018 2.49264 -23.7325 0.0 0.0 0.0 0.0 0.0 
3057.31 705.892 -1463.26 -6.33728 59.0418 1.3094 0.557988 1.13514 4.27125 0.567723 0.861314 4.33467 0.637434 -0.0189707 4.41921 0.610831 0.678523 4.36695 -4.2522 18.4981 -0.938645 -3.84748 34.665 1.99474 -0.0 0.0 -0.0 0.443148 23.5776 3.33169 -28.5569 -14.4496 66.2741 0.517108 -14.3681 0.0651802 -20.8024 -1.17714 2.37063 -1.27294 13.6316 -2.3716 -0.0 0.0 -0.0 13.6607 26.2123 -27.1845 15.6892 37.883 -67.1373 1.46674 35.9991 -0.476583 24.8507 -0.196604 3.14358 2.47582 9.99325 -12.5606 0.0 0.0 0.0 20.6649 36.0624 -7.30538 -1.70161 0.0663139 0.252708 23.4581 -21.5137 -3.57602 -40.1768 0.0 0.0 -0.0 0.0 -0.0 -17.293 32.6559 15.7211 -26.5812 -0.159759 -4.03958 11.7917 -14.1114 1.67568 -25.2572 0.0 0.0 0.0 0.0 0.0 
3039.24 705.132 -1466.32 -5.08369 59.5086 0.530915 0.608888 1.15151 4.24846 0.618498 0.879099 4.31296 0.689059 0.0068112 4.40147 0.662718 0.701189 4.34537 -4.57884 18.5698 -1.58499 -4.19224 35.3326 1.44524 -0.0 0.0 -0.0 -0.0139174 24.1537 2.77083 -27.5058 -15.1813 64.3061 0.652986 -17.9249 0.102986 -22.2456 -1.28974 2.51726 -1.26796 12.9533 -2.64685 -0.0 0.0 -0.0 13.8239 26.5385 -27.5241 14.892 38.1692 -68.3321 1.22276 31.2028 -0.341445 23.4041 -0.222717 2.96065 2.05741 3.94596 -12.2727 0.0 0.0 0.0 18.5225 37.5507 -6.73837 -3.03484 0.113004 0.451988 26.1907 -18.476 -3.82427 -40.1059 0.0 0.0 -0.0 0.0 -0.0 -14.7898 33.9042 13.5469 -33.9335 0.126583 -5.1308 8.43789 -15.1696 1.21523 -24.7053 0.0 0.0 0.0 0.0 0.0 
3018.8 712.532 -1460.12 -4.43808 60.7004 -0.472611 0.45396 1.05716 4.22753 0.463556 0.786266 4.28608 0.52703 -0.0914623 4.35651 0.50105 0.597062 4.31645 -6.61701 18.9627 -0.767182 -6.55969 35.7957 3.0553 -0.0 0.0 -0.0 0.112047 24.1765 2.94295 -24.6136 -16.5346 61.7675 0.743832 -20.2274 0.132682 -23.2293 -1.3686 2.61557 -1.40364 13.3898 -3.30065 -0.0 0.0 -0.0 13.7805 26.8191 -27.3872 12.8361 37.6901 -68.0207 1.01219 26.629 -0.239547 23.6154 -0.219191 2.98741 1.78477 3.31661 -10.6614 0.0 0.0 0.0 17.258 38.4152 -5.47146 -5.67866 0.191804 0.850045 25.7296 -19.0671 -3.78599 -39.9584 0.0 0.0 -0.0 0.0 -0.0 -13.0448 35.0966 13.1338 -36.6333 0.266589 -5.52119 6.38338 -18.4714 0.933311 -24.6091 0.0 0.0 0.0 0.0 0.0 
2999.32 715.094 -1459.06 -4.33163 61.8835 -0.11841 0.283596 0.98477 4.1442 0.292861 0.719307 4.19833 0.350433 -0.152722 4.25666 0.325533 0.520841 4.22749 -6.82357 18.7421 -1.31228 -6.79041 35.8015 2.53514 -0.0 0.0 -0.0 0.251899 23.2433 3.03664 -21.7675 -17.4961 60.4685 0.848108 -22.7884 0.170923 -24.3417 -1.45979 2.72511 -1.37799 12.6595 -3.47346 -0.0 0.0 -0.0 14.0742 26.5889 -28.1027 9.97643 37.164 -67.3899 0.854878 22.9516 -0.173554 23.0557 -0.228317 2.9165 1.42751 -0.497994 -9.78031 0.0 0.0 0.0 15.8648 39.0958 -4.6493 -5.13412 0.177079 0.767774 27.0039 -19.571 -3.95868 -39.8669 0.0 0.0 -0.0 0.0 -0.0 -8.88259 34.433 10.4907 -41.6694 0.576377 -6.23038 3.56214 -21.9571 0.531671 -23.6943 0.0 0.0 0.0 0.0 0.0 
2977.99 723.567 -1453.19 -2.1035 62.6352 -2.42983 0.22186 1.03595 4.0952 0.230855 0.773494 4.15269 0.291939 -0.0945191 4.22293 0.267518 0.573005 4.18501 -5.46993 19.5488 -0.207513 -5.23215 36.2908 3.33246 -0.0 0.0 -0.0 0.379178 22.6537 3.15356 -18.4272 -18.448 59.2057 0.975613 -25.7935 0.223392 -26.2119 -1.61788 2.90525 -1.61476 13.0298 -4.79517 -0.0 0.0 -0.0 13.9801 26.5857 -27.8828 6.50267 36.4309 -66.6008 0.68208 18.6693 -0.11212 22.9538 -0.229903 2.90358 0.99091 -4.59655 -8.47434 0.0 0.0 0.0 13.7572 40.0524 -3.777 -7.14098 0.227471 1.07161 26.9128 -20.4127 -3.97638 -39.7579 0.0 0.0 -0.0 0.0 -0.0 -6.01226 32.9727 9.61581 -47.5506 1.0156 -7.02101 2.72941 -24.5083 0.413111 -21.9953 0.0 0.0 0.0 0.0 0.0 
2955.52 729.045 -1450.67 -0.56175 63.9403 -4.29355 0.0412929 0.952596 4.14211 0.0505732 0.687331 4.1942 0.106358 -0.201389 4.24528 0.0815249 0.47099 4.22392 -4.03849 19.3963 0.304107 -3.60466 35.3542 3.3479 -0.0 0.0 -0.0 0.314656 22.0239 3.0002 -16.9302 -18.6684 58.334 1.11369 -28.8842 0.286829 -28.7894 -1.84527 3.14495 -1.66937 12.8687 -5.21535 -0.0 0.0 -0.0 14.0174 26.0398 -28.0389 2.44702 35.4922 -65.7119 0.618628 17.0378 -0.0926641 23.8736 -0.214749 3.02009 1.0652 -6.19994 -9.59369 0.0 0.0 0.0 11.2646 41.2081 -2.37317 -8.17919 0.249354 1.22943 26.7866 -21.5184 -4.00056 -38.5611 0.0 0.0 -0.0 0.0 -0.0 -1.76456 30.4134 8.15351 -54.4973 1.63599 -7.89197 3.27784 -26.7576 0.501568 -21.2559 0.0 0.0 0.0 0.0 0.0 
